<svg width="400" height="700" viewBox="0 0 400 700" fill="none" xmlns="http://www.w3.org/2000/svg">
<g id="Muscle Map Back">
<rect width="400" height="700" fill="white" fill-opacity="0.4"/>
<path id="body_base_back" d="M152 51C151.333 38.8334 156.9 13.8 184.5 11C212.1 8.20002 220.333 36.5 221 51C224 52.3333 229.5 56.5 227.5 62.5C225 70 220 80 217 77.5L215.5 87C215.667 89.6667 214.8 95.3 210 96.5C209.333 100.167 210.1 108.2 218.5 111L230 118C237.5 119.333 254.2 123.3 261 128.5C269.5 135 283.5 145.5 283.5 171C287.333 177.667 294.3 193.5 291.5 203.5C293.167 206.167 296.5 214 296.5 224C302.167 229.167 313.6 246.2 314 273C316.333 275.833 321.7 284.8 324.5 298L334 322C337.167 322.667 345.5 327 353.5 339L359.5 343C362.667 343.833 368.3 346.9 365.5 352.5C362 359.5 353.5 359 348.5 357L357.5 373C357.333 375.333 356.3 380.2 353.5 381C354.333 383.333 355 388.4 351 390C347 391.6 344 390.667 343 390C342 391.333 339.2 393.4 336 391C332.8 388.6 331 386 330.5 385C329.333 386.333 325.7 387.4 320.5 381C315.3 374.6 308.333 357.667 305.5 350V332.5C294.167 314.833 271.4 276.1 271 262.5C267.667 259 261.5 249.2 263.5 238C259.5 232.833 251.1 220.6 249.5 213C248 224.5 244.1 248 240.5 250C243.833 254.167 249.7 265.1 246.5 275.5C248.833 280.333 253.6 292.9 254 304.5L252.5 316.5C256.667 318.833 263.6 339.4 258 403L249 456C250.5 467.667 252.1 491.5 246.5 493.5C250.5 499.5 258.8 514.9 260 528.5C261.5 545.5 255 569 251.5 581.5C248 594 242.5 609.5 244.5 625V637.5C250.667 636.667 264.4 636.7 270 643.5C273.667 647.333 278.5 657.4 268.5 667C266 668.167 259.5 670.9 253.5 672.5C250.167 677.5 241.9 686.9 235.5 684.5C228.833 686.5 215 686.9 213 672.5V656.5C213 653.833 212.6 646.3 211 637.5C212.667 629.167 216.3 611 217.5 605L209.5 569C206.667 565 201.6 553.3 204 538.5C206.4 523.7 210 514.667 211.5 512C208.667 510.333 202.4 503.5 200 489.5C197 472 195.5 472 189.5 440.5C183.5 409 190 344 191 347L186.5 341L181.5 347C183.667 368.167 187.1 416.5 183.5 440.5C179.9 464.5 182.333 451.167 184 441.5C181.333 459.5 173.1 498.8 161.5 512C164.833 521.333 171 542.9 169 554.5C167.5 558.5 164.2 567 163 569C161 575.5 156.7 591.3 155.5 602.5C156 608.5 157.6 622.2 160 629C160.167 635.833 160.2 651.1 159 657.5C159.667 664 159.9 678.1 155.5 682.5C148.833 684.833 133.4 687.5 125 679.5C125.167 677.333 122.8 672.6 112 671C107.5 669.5 98.2 663.9 97 653.5C97.1666 649.167 100.4 639.9 112 637.5H127.5C127.5 636.167 127.7 631.6 128.5 624C129.3 616.4 126.5 602.5 125 596.5C119.833 579.833 110.1 544 112.5 534C115.5 521.5 113 521.5 125 493.5C123.167 490.333 120.3 478.4 123.5 456C118.667 427 109.7 366.8 112.5 358C112.333 352 112.6 336.1 115 320.5C115.833 319.167 118.1 316.5 120.5 316.5L118.5 304.5C119.667 297.5 122.9 281.9 126.5 275.5C125.167 270 124.6 257.2 133 250C129.5 243.667 122.9 226.8 124.5 210C121.833 216 114.9 230 108.5 238C109.333 241.167 109 250.5 101 262.5C92.8333 284 74.4 328.2 66 333C66.6666 340 66.1 356.3 58.5 365.5C55.6666 372.833 48.4 387 42 385C40.6666 388.333 36.1 394 28.5 390C24.6666 391.333 17.2 391.5 18 381.5C15.8333 379.667 12.7999 373.9 18 365.5C23.2 357.1 23.1666 357 22.4998 358C17.3332 359.167 6.69984 359.4 5.49984 351C4.66659 349.333 6.00008 344.9 18 340.5C21.1666 335.167 29.7 324.1 38.5 322.5C43.5 305.167 54.5 271 58.5 273C57.3333 263.5 59.2 240.3 76 223.5C76.1667 218.667 77.3 207.9 80.5 203.5C79.3333 197.333 79.4 182.2 89 171C88.1667 155.167 97.4 122.6 141 119L158.5 109C160.333 109.167 163.7 106.9 162.5 96.5C160.167 95.6667 155.8 90.7 157 77.5C155.167 78.6667 150.2 76.8 145 60C145.167 57.8333 146.8 53 152 51Z" stroke="black"/>
<g id="upper_traps">
<path id="left_upper_trap" d="M183.5 101C173.9 114.2 143.5 123.833 129.5 127C158.3 132.2 177.5 144.5 183.5 150V101Z" stroke="black"/>
<path id="right_upper_trap" d="M189 101C198.422 114.2 228.259 123.833 242 127C213.733 132.2 194.889 144.5 189 150V101Z" stroke="black"/>
</g>
<g id="middle_traps">
<path id="left_middle_trap" d="M184 169V152L144.5 133.5C148.5 139.5 148.5 148.333 148 152L184 169Z" stroke="black"/>
<path id="right_middle_trap" d="M189 169V151.761L229 133C224.949 139.085 224.949 148.042 225.456 151.761L189 169Z" stroke="black"/>
</g>
<g id="lower_traps">
<path id="left_lower_trap" d="M184.5 173L149 156.5C174.2 186.9 183.167 207.833 184.5 214.5V173Z" stroke="black"/>
<path id="right_lower_trap" d="M189 172.5L225 156C199.445 186.4 190.352 207.333 189 214V172.5Z" stroke="black"/>
</g>
<g id="side_delts">
<path id="left_side_delt" d="M129.5 127C117.167 129.333 92.9002 141.3 94.5002 170.5C98.6669 162.167 111.5 141.8 129.5 127Z" stroke="black"/>
<path id="right_side_delt" d="M242 127C254.307 129.36 278.521 141.464 276.925 171C272.767 162.571 259.961 141.97 242 127Z" stroke="black"/>
</g>
<g id="rear_delts">
<path id="left_rear_delt" d="M97 172C106.6 153.6 124.667 135.333 132.5 128.5C141.3 132.1 143.5 140.667 143.5 144.5C121.1 168.1 103.167 172.667 97 172Z" stroke="black"/>
<path id="right_rear_delt" d="M275 171.94C265.503 153.777 247.631 135.745 239.882 129C231.176 132.554 229 141.01 229 144.794C251.159 168.09 268.9 172.598 275 171.94Z" stroke="black"/>
</g>
<g id="triceps">
<path id="right_triceps_long_head" d="M120.5 170C114.333 176.833 102 198.2 102 229C111.667 222.333 128.9 201.2 120.5 170Z" stroke="black"/>
<path id="left_triceps_long_head" d="M270.262 228.489C271.503 219.369 269.644 194.768 252.281 169.329C248.055 180.285 245.735 207.455 270.262 228.489Z" stroke="black"/>
<path id="right_triceps_lateral_head" d="M112 174C102.132 177.048 95.5538 176.032 93.4981 175.143C85.528 179.714 83.8518 197.619 84.0099 206C97.2933 197.467 108.205 181.111 112 174Z" stroke="black"/>
<path id="left_triceps_lateral_head" d="M259 174C268.868 177.048 275.446 176.032 277.502 175.143C285.472 179.714 287.148 197.619 286.99 206C273.707 197.467 262.795 181.111 259 174Z" stroke="black"/>
<path id="right_triceps_medial_head" d="M102.17 194.311C93.0884 202.545 76.3447 221.757 82.0218 232.73C87.561 242.732 99.3455 249.051 102.17 194.311Z" stroke="black"/>
<path id="left_triceps_medial_head" d="M269.522 195.911C278.863 203.44 296.249 221.202 291.069 232.015C285.985 241.887 274.559 248.487 269.522 195.911Z" stroke="black"/>
</g>
<g id="forearms_back">
<path id="right_forearm_back_outer" d="M86.5 242C80.5 240.167 63.7 253.6 44.5 322C48.8333 327.833 63.3 320 86.5 242Z" stroke="black"/>
<path id="right_forearm_back_inner" d="M61 326.5C86.2 248.5 99.1667 236.333 102.5 240C104.1 243.6 101.833 251.167 100.5 254.5C81.3 304.5 66.1667 323.333 61 326.5Z" stroke="black"/>
<path id="left_forearm_back_inner" d="M311 328C285.231 248.276 271.971 235.84 268.563 239.588C266.927 243.267 269.244 251.001 270.608 254.408C290.242 305.514 305.717 324.763 311 328Z" stroke="black"/>
<path id="left_forearm_back_outer" d="M284 242.156C290.143 240.338 307.343 253.66 327 321.494C322.563 327.279 307.752 319.51 284 242.156Z" stroke="black"/>
</g>
<g id="rhomboids">
<path id="right_rhomboid_upper" d="M156 166.5C155.6 159.7 148.5 144.333 145 137.5L179 130C184.2 136 184.167 145.833 183.5 150L156 166.5Z" stroke="black"/>
<path id="left_rhomboid_upper" d="M216.946 166C217.348 159.293 224.483 144.137 228 137.397L193.834 130C188.609 135.918 188.643 145.616 189.313 149.726L216.946 166Z" stroke="black"/>
<path id="right_rhomboid_lower" d="M171 187.5C164.6 174.7 160 169.5 158.5 168.5L185 152V165.5L171 187.5Z" stroke="black"/>
<path id="left_rhomboid_lower" d="M202.264 187C208.785 174.02 213.472 168.746 215 167.732L188 151V164.69L202.264 187Z" stroke="black"/>
</g>
<g id="teres_major">
<path id="right_teres_major" d="M146.938 151.887C129.914 153.433 125.442 169.45 125.334 177.266C143.238 187.412 176.161 203.37 164.63 186.031C153.099 168.692 148.031 156.044 146.938 151.887Z" stroke="black"/>
<path id="left_teres_major" d="M230.605 150.694C243.425 155.343 244.074 173.135 242.797 181.45C227.265 189.057 199.173 200.178 211.057 183.811C222.942 167.443 229.041 154.913 230.605 150.694Z" stroke="black"/>
</g>
<g id="lats">
<path id="left_lat" d="M177 205C145.4 193.4 129.5 184.833 125.5 182C127.1 262 165.5 277.333 184.5 275V221.5L177 205Z" stroke="black"/>
<path id="right_lat" d="M196.5 205C228.1 193.4 244 184.833 248 182C246.4 262 208 277.333 189 275V221.5L196.5 205Z" stroke="black"/>
</g>
<g id="erectors">
<path id="left_erector" d="M187 69.0001L189 318.5C194.2 314.9 196.5 308.667 197 306C205 201.2 200.333 109.333 197 76.5001C192.2 68.1001 188.333 68.0001 187 69.0001Z" stroke="black"/>
<path id="right_erector" d="M186.417 69.4312L184.417 318.931C179.217 315.331 176.917 309.098 176.417 306.431C168.417 201.631 173.084 109.765 176.417 76.9313C181.217 68.5313 185.084 68.4312 186.417 69.4312Z" stroke="black"/>
</g>
<g id="lower_back">
<path id="right_lower_back" d="M184.5 275.5C178.1 276.7 167.167 273.333 162.5 271.5C169.7 298.7 180.167 314.5 184.5 319V275.5Z" stroke="black"/>
<path id="left_lower_back" d="M188 276C194.4 277.2 205.333 273.833 210 272C202.8 299.2 192.333 315 188 319.5V276Z" stroke="black"/>
</g>
<g id="glutes">
<path id="right_glute" d="M185.5 329.5C174.7 316.3 164.667 295.667 161 287C136.2 284.6 127.333 307 126 318.5C139.6 318.1 140 347 138.5 361.5C174.5 355.5 184.833 337.667 185.5 329.5Z" stroke="black"/>
<path id="left_glute" d="M188 329.678C198.8 316.478 208.833 295.845 212.5 287.178C237.3 284.778 246.167 307.178 247.5 318.678C233.9 318.278 233.5 347.178 235 361.678C199 355.678 188.667 337.845 188 329.678Z" stroke="black"/>
</g>
<g id="abductors">
<path id="right_abductor" d="M159 282.5C157.4 271.3 150.333 267.167 147 266.5C129.8 266.5 124.833 292.167 124.5 305C135.7 285.8 152.167 282 159 282.5Z" stroke="black"/>
<path id="left_abductor" d="M213 283C214.6 271.8 221.667 267.667 225 267C242.2 267 247.167 292.667 247.5 305.5C236.3 286.3 219.833 282.5 213 283Z" stroke="black"/>
</g>
<g id="hamstrings">
<path id="right_hamstring_inner" d="M161 504C183.4 470.4 181 388 177 351C157.4 359 154.5 364.667 155.5 366.5L148.5 464.5C160.9 487.7 162 500.5 161 504Z" stroke="black"/>
<path id="left_hamstring_inner" d="M212.617 503C190.217 469.4 192.617 387 196.617 350C216.217 358 219.117 363.667 218.117 365.5L225.117 463.5C212.717 486.7 211.617 499.5 212.617 503Z" stroke="black"/>
<path id="right_hamstring_outer" d="M129.5 453.5C112.3 375.5 117.333 333.333 122 322C138.4 319.6 136.833 350.333 134 366C138.4 367.2 145.833 365.5 149 364.5C152.2 369.7 147.667 426 145 453.5C137 474.7 131.333 485 129.5 487.5C124.7 487.1 127.5 464.667 129.5 453.5Z" stroke="black"/>
<path id="left_hamstring_outer" d="M243.601 452.633C260.801 374.633 255.767 332.466 251.101 321.133C234.7 318.733 236.267 349.466 239.101 365.133C234.701 366.333 227.267 364.633 224.101 363.633C220.901 368.833 225.434 425.133 228.101 452.633C236.101 473.833 241.767 484.133 243.601 486.633C248.4 486.233 245.601 463.799 243.601 452.633Z" stroke="black"/>
</g>
<g id="calves">
<path id="right_calf" d="M144.5 492L139.5 481.5C119.1 501.5 116.333 533.167 117.5 546.5C124.3 557.3 133.333 555 137 552.5C145.8 570.9 151.667 571.833 153.5 570C175 559.5 159.5 522.5 157.5 519C155.9 516.2 155.5 496.5 155.5 487L144.5 492Z" stroke="black"/>
<path id="left_calf" d="M228.272 492.5L233.272 482C253.672 502 256.439 533.667 255.272 547C248.472 557.8 239.439 555.5 235.772 553C226.972 571.4 221.105 572.333 219.272 570.5C197.772 560 213.272 523 215.272 519.5C216.872 516.7 217.272 497 217.272 487.5L228.272 492.5Z" stroke="black"/>
</g>
<path id="head" d="M185.5 15.9999C161.9 15.5999 157 41.4999 157.5 54.4999C150.7 56.4998 150 59.3333 150.5 60.5C153.7 74.1 159.167 74.8333 161.5 73.5C161.9 91.1 164.667 93.5 166 92.5C166.4 71.7 179.166 65.5 185.5 65C201.9 65 207 83.3333 207.5 92.5C210.7 94.5 212.167 80.6667 212.5 73.5C217.7 76.3 221.667 66 223 60.5C221.4 56.9 217.333 54.9999 215.5 54.4999C215.5 20.8998 195.5 14.8332 185.5 15.9999Z" stroke="black"/>
</g>
</svg>
