<svg width="400" height="700" viewBox="0 0 400 700" fill="none" xmlns="http://www.w3.org/2000/svg">
<g id="Muscle Map Front">
<rect width="400" height="700" fill="white" fill-opacity="0.4"/>
<g id="biceps">
<path id="left_biceps_short_head" d="M143 231C163 203.8 155.667 182.333 149.5 175C147.9 175 141.833 204.333 139 219L143 231Z" stroke="black"/>
<path id="right_biceps_short_head" d="M294.546 232C272.279 204.314 280.443 182.464 287.309 175C289.091 175 295.845 204.857 299 219.786L294.546 232Z" stroke="black"/>
<path id="right_biceps_long_head" d="M120 228C105.6 192 134 177.667 150 175C157.6 191 135.833 234.667 124 254.5C125.6 242.5 122 231.833 120 228Z" stroke="black"/>
<path id="left_biceps_long_head" d="M318.884 227.667C333.882 191.893 304.303 177.65 287.639 175C279.724 190.899 302.394 234.291 314.718 254C313.052 242.075 316.801 231.476 318.884 227.667Z" stroke="black"/>
</g>
<g id="chest">
<path id="right_chest_middle" d="M177 139C169.4 152.2 163.5 163.5 160.5 174.5C178.167 174.5 213.9 173.9 215.5 171.5C217.1 169.1 216.167 164.833 215.5 163L177 139Z" stroke="black"/>
<path id="right_chest_lower" d="M215.5 173C211.833 185.667 195.9 203.9 161.5 175.5L215.5 173Z" stroke="black"/>
<path id="left_chest_lower" d="M276.5 175.5C263.167 187.5 233.6 203.8 222 173L276.5 175.5Z" stroke="black"/>
<path id="left_chest_middle" d="M261.466 139C269.081 152.386 275 163.5 278 175C260.296 175 224.489 174.392 222.885 171.958C221.282 169.524 222.217 165.197 222.885 163.338L261.466 139Z" stroke="black"/>
<path id="left_chest_upper" d="M215.5 163L177.5 139C179.9 130.6 193.5 135.5 200 139C215.6 141.8 216.833 156.167 215.5 163Z" stroke="black"/>
<path id="right_chest_upper" d="M222.419 163L262 138.697C259.5 130.191 245.334 135.152 238.564 138.697C222.314 141.532 221.03 156.08 222.419 163Z" stroke="black"/>
</g>
<g id="side_delts">
<path id="right_side_delt" d="M127 181C124.833 164.167 129.5 130.3 165.5 129.5L127 181Z" stroke="black"/>
<path id="left_side_delt" d="M311.532 183C313.813 165.35 308.9 129.839 271 129L311.532 183Z" stroke="black"/>
</g>
<g id="front_delts">
<path id="right_front_delt" d="M174 136.5L166.5 129.5L128 181L159.5 168L174 136.5Z" stroke="black"/>
<path id="left_front_delt" d="M264 136.66L271.174 130L308 179L277.87 166.631L264 136.66Z" stroke="black"/>
</g>
<g id="upper_traps_front">
<path id="left_upper_trap_front" d="M211 136L194.5 116.5L168 128.5C171.2 129.7 175 132 176.5 133C181.7 128.2 188.667 131 191.5 133L211 136Z" stroke="black"/>
<path id="right_upper_trap_front" d="M227 136L243.884 117L271 128.692C267.726 129.862 263.837 132.103 262.302 133.077C256.981 128.4 249.853 131.128 246.953 133.077L227 136Z" stroke="black"/>
</g>
<g id="front_neck">
<path id="right_front_neck" d="M199 99.5C213 101.1 216.5 123.5 216.5 134.5C206.9 130.1 199.5 118.333 197 113C197 107 198.333 101.5 199 99.5Z" stroke="black"/>
<path id="left_front_neck" d="M239.051 99C225.41 100.646 222 123.686 222 135C231.354 130.474 238.564 118.371 241 112.886C241 106.714 239.701 101.057 239.051 99Z" stroke="black"/>
</g>
<g id="upper_chest">
<path id="ight_upper_chest" d="M219 151C190.2 130.2 179.333 134 177.5 138.5C189 146.833 212.8 163.3 216 162.5C219.2 161.7 219.333 154.5 219 151Z" stroke="black"/>
<path id="left_upper_chest" d="M220.12 151.126C247.796 131.506 258.238 135.09 260 139.335C248.949 147.195 226.078 162.728 223.003 161.973C219.928 161.219 219.799 154.427 220.12 151.126Z" stroke="black"/>
</g>
<g id="serratus">
<path id="right_serratus_upper" d="M191.5 194.5L164.5 185.5L163 212L184.5 227.5C188.9 220.7 191 202.667 191.5 194.5Z" stroke="black"/>
<path id="left_serratus_upper" d="M247 194L274.474 185L276 211.5L254.123 227C249.646 220.2 247.509 202.167 247 194Z" stroke="black"/>
<path id="right_serratus_lower" d="M168 249.5C166 252.7 164.167 225.833 163.5 212L184 228C177.2 233.2 170.5 244.5 168 249.5Z" stroke="black"/>
<path id="left_serratus_upper_2" d="M271.171 250.715C273.317 254.19 275.285 225.019 276 210L254 227.372C261.298 233.018 268.488 245.286 271.171 250.715Z" stroke="black"/>
</g>
<g id="forearms">
<path id="right_forearm_outer" d="M100 281.5C99.6001 256.3 111.5 238 117.5 232C131.5 255.2 103.667 300 88 319.5C95.6 307.9 99.1667 289.333 100 281.5Z" stroke="black"/>
<path id="left_forearm_outer" d="M338.755 282.349C339.163 256.717 327.02 238.103 320.898 232C306.612 255.598 335.014 301.166 351 321C343.245 309.201 339.605 290.316 338.755 282.349Z" stroke="black"/>
<path id="right_forearm_inner" d="M142.5 236C132.833 242.667 112.4 271.4 108 333C122.667 302.833 150.1 241.2 142.5 236Z" stroke="black"/>
<path id="left_forearm_inner" d="M296.196 237.586C307.535 244.935 330.349 274.457 330.892 333.756C315.269 303.448 286.457 241.784 296.196 237.586Z" stroke="black"/>
</g>
<g id="obliques_front">
<path id="right_oblique_upper" d="M192 271C182.4 267.4 184.333 244.167 186.5 233L173 246.5C172.2 266.9 185.334 271.333 192 271Z" stroke="black"/>
<path id="left_oblique_upper" d="M247 270.983C256.582 267.385 254.653 244.162 252.49 233L265.965 246.494C266.764 266.885 253.654 271.316 247 270.983Z" stroke="black"/>
<path id="right_oblique_lower" d="M203.5 330.5C161.1 305.3 164.167 272.333 171 259C175 266.6 184 273.5 188 276C190.4 304 199.333 324 203.5 330.5Z" stroke="black"/>
<path id="left_oblique_lower" d="M235 330C277.937 304.976 274.831 272.24 267.911 259C263.861 266.547 254.747 273.399 250.696 275.881C248.266 303.685 239.219 323.545 235 330Z" stroke="black"/>
</g>
<g id="core_front">
<path id="upper_core_front" d="M247.5 220.5C220.7 207.7 198.667 215.167 191 220.5C191 194.9 205 190.167 212 191L220 178.5L227.5 191C243.9 191.4 247.667 210.833 247.5 220.5Z" stroke="black"/>
<path id="middle_core_front" d="M218.5 219.5C189.3 214.7 186.667 234.167 189 244.5C186.6 250.9 192 264.167 195 270L220.5 275L244.5 270C250.1 257.2 250.167 247.667 249.5 244.5C253.1 219.3 230.333 217.333 218.5 219.5Z" stroke="black"/>
<path id="lower_core_front" d="M218.5 281.5C213.7 277.1 200.5 274.667 194.5 274C190.9 321.6 210.333 335.833 220.5 337C241.3 333 245.167 293.333 244.5 274C233.7 274 222.667 279 218.5 281.5Z" stroke="black"/>
</g>
<g id="adductors">
<path id="right_adductor_upper" d="M212 343C196.4 336.2 179.5 316.5 173 307.5L210 369.5C211.6 365.5 212.667 348 212 343Z" stroke="black"/>
<path id="left_adductor_upper" d="M227.206 342.073C243.124 335.163 260.368 315.145 267 306L229.247 369C227.614 364.935 226.526 347.153 227.206 342.073Z" stroke="black"/>
<path id="left_adductor_lower" d="M238 419L266.5 306.5L229 369.5L238 419Z" stroke="black"/>
<path id="right_adductor_lower" d="M200.88 419L172 305L210 368.84L200.88 419Z" stroke="black"/>
</g>
<g id="quads">
<path id="right_quad_inner" d="M195.5 409C193.5 430.2 189 452.833 187 461.5C191.4 479.5 191.5 494 191 499C206.2 456.2 200.333 421.167 195.5 409Z" stroke="black"/>
<path id="left_quad_inner" d="M243.359 409C245.392 431.142 249.967 454.781 252 463.833C247.527 482.633 247.425 497.778 247.934 503C232.481 458.298 238.445 421.707 243.359 409Z" stroke="black"/>
<path id="right_quad_center" d="M190 391.5C184 366.3 173.5 324.667 169 307C162.6 363.8 163.667 450.333 165 486.5C191.8 462.5 192.834 413.167 190 391.5Z" stroke="black"/>
<path id="left_quad_center" d="M249.038 390.817C254.854 365.508 265.047 323.691 269.416 305.946C276.168 362.862 275.672 449.641 274.58 485.916C247.709 462.025 246.356 412.562 249.038 390.817Z" stroke="black"/>
<path id="right_quad_outer" d="M164 295C162 337 158.6 427.2 161 452C150.833 429.333 137.2 366.2 164 295Z" stroke="black"/>
<path id="left_quad_outer" d="M274 299C276.175 339.395 279.872 426.148 277.262 450C288.316 428.2 303.14 367.479 274 299Z" stroke="black"/>
</g>
<path id="body_base_front" d="M194 98.5001C192.833 97.5001 190.3 92.8001 189.5 82.0001C186 78.5001 178.9 70.2001 178.5 65.0001C178.1 59.8001 183.333 56.1668 186 55.0001C185.167 43.0001 189.3 18.4001 212.5 16.0001C235.7 13.6001 246.166 26.6668 248.5 33.5001C249.666 36.3334 252.2 44.2999 253 53.5C253.8 62.7001 253.333 58.3334 253 55.0001C256.833 55.6667 263.1 59.9 257.5 71.5C255.166 76.0001 250.1 84.4002 248.5 82.0001V93L244.5 98.5001L246.5 112.5L274 125C280.833 125.333 296.4 128.3 304 137.5C313.5 149 316 151 316.5 181.5C323.5 189 334.9 208.8 324.5 228C329.5 232 340.1 247 342.5 275C344.9 303 353.5 317.333 357.5 321L376 340C381 340.667 389.9 344 385.5 352C381.1 360 373.666 357.333 370.5 355L380.5 371C380.833 374.167 380.7 380.7 377.5 381.5C378 385.833 376.6 393.7 367 390.5C363.666 392.5 356.5 394.4 354.5 386C351.666 385.833 345.3 383.6 342.5 376C339.7 368.4 332 358.833 328.5 355C327 352.667 324.9 346.4 328.5 340C317 316 294.3 267.2 295.5 264C295.5 260.833 294.4 252.9 290 246.5C289.333 244.667 288.4 239.7 290 234.5C286.5 228.167 279.7 215 280.5 213L277 246.5C276.666 249.167 275.2 254.6 272 255C274.666 261.167 279 276.8 275 290C283 306.167 298.4 348 296 386C293.6 424 284 449.833 279.5 458V495C284.833 506.167 293.9 537.4 287.5 573C286.666 582.833 283.1 604.5 275.5 612.5C276.5 611.667 279 616 281 640L294 654.5C300.833 658.667 314.4 668.5 314 674.5C315.666 677.5 316 684 304 686C297.833 688.833 282.9 692.1 272.5 682.5C271 680.5 266 676.1 258 674.5C255.666 674.167 251 668.5 251 648.5L249.5 640C249 635 249 622.5 253 612.5C257 602.5 247.333 577 242 565.5C240.333 558 238.4 539.2 244 524L245.5 505.5C241.333 497.333 233.1 476 233.5 456C233.9 436 235 426.667 235.5 424.5C232.833 419.667 226.4 400.2 222 361C221.666 355.333 221.5 343.6 223.5 342C225.5 340.4 219.333 341.333 216 342C216.833 346.833 218 357.4 216 361C214.666 375.833 210.9 408.5 206.5 420.5L204 424.5C205.333 433.333 206.9 456.3 202.5 477.5C201.5 482.333 198.4 494.7 194 505.5V518.5C197 529.833 201.6 555.5 196 567.5C191.5 579.333 183.3 605.2 186.5 614C189.7 622.8 190.833 631 191 634C190.5 643.833 188.3 665.1 183.5 671.5C182.833 673.167 179.7 676.7 172.5 677.5C168.833 681.333 159 689 149 689C143.5 689.167 131 687.7 125 680.5C123.833 677.667 124.8 669.4 138 659C141.666 656.833 149 652.1 149 650.5C149 648.5 158 640 157.5 640C157 640 163 605.5 163.5 614C153.833 593.667 139.7 541.4 160.5 495L158.5 458C152.333 446.5 140.8 412.3 144 367.5C147.2 322.7 158.333 297.167 163.5 290C161.5 284.667 159.2 270.2 166 255C164 254.333 160 248 160 228L158 213C156.5 218.667 152.3 230.9 147.5 234.5C148 236.333 149 241.3 149 246.5L144 257C144.666 259 143 269.6 131 296C119 322.4 112.333 336 110.5 339.5L112 345.5C112.5 349 111.3 357.9 102.5 365.5C98.9998 374 90.4998 390 84.4998 386C82.8331 389 77.9998 394.1 71.9998 390.5C68.3331 392.5 61.0998 393.6 61.4998 382C57.4999 380.833 53.2 374 68 356C61.6666 357.333 49.8 357.1 53 345.5C54.3333 344.167 58.1 341.3 62.5 340.5L78 324L82 321.5C87 310.667 97.2 283.4 98 261C98.6667 255 102.8 240 114 228C109.667 220.167 105.3 199.9 122.5 181.5C119.5 170.167 118.5 144.7 138.5 133.5C141 130.667 149.5 125 163.5 125L192 112.5L194 98.5001Z" stroke="black"/>
<path id="head" d="M218 19.9999C193.2 21.1999 189.667 45.4999 191 57.4999C180.2 59.8999 183.834 68.1666 187 72C188.6 76.8 192.334 77.6667 194 77.5L196 93C203.5 100 210 101 219 102.5C226.2 103.7 237.667 96.6667 242.5 93L244.5 77.5L249 76.5C257.5 66.5 254 64 254.5 62.5C255 61 248 57.4999 248 55.9999C248 54.4999 249 18.4999 218 19.9999Z" stroke="black"/>
<g id="tibialis_anterior">
<path id="right_tibialis" d="M184 467.5C163.5 494.167 134.8 564.6 184 633C180.666 592.667 176 503.1 184 467.5Z" stroke="black"/>
<path id="left_tibialis" d="M257 467C275.866 493.103 302.277 562.047 257 629C260.068 589.52 264.362 501.847 257 467Z" stroke="black"/>
</g>
</g>
</svg>
